# xmcd
#
# Track frame offsets:
#	150
#	13306
#	27284
#	42596
#	66103
#	85559
#	103211
#	118464
#	131584
#	156237
#	169255
#	183631
#	197594
#	210863
#	226256
#	240891
#	252555
#	266300
#	282726
#	301738
#
# Disc length: 4206 seconds
#
# Revision: 2
# Processed by: cddbd v1.5.2PL0 Copyright (c) Steve Scherf et al.
# Submitted via: audiograbber 1.83.01
#
DISCID=1b106c14
DTITLE=Essential Collection CD 2of3 - Louis Armstrong
DYEAR=2011
DGENRE=Jazz
TTITLE0=Takes two to tango
TTITLE1=Dream a little dream of me
TTITLE2=Georgio on my mind
TTITLE3=Sweet Lorraine
TTITLE4=I get a kick out of you
TTITLE5=I gotta right to sing the blues
TTITLE6=After you've gone
TTITLE7=I'm shooting high
TTITLE8=Bess, you is my woman now
TTITLE9=I can't give you anything but love
TTITLE10=(Was I to blame for) falling in love
TTITLE11=Perdido street blues
TTITLE12=Mahogany hall soup
TTITLE13=Sugar
TTITLE14=You can't lose a broekn heart
TTITLE15=Blues for yesterday
TTITLE16=Red sails to the sunset
TTITLE17=Don't get around much anymore
TTITLE18=Let's call the whole thing off
TTITLE19=Do you know what it means to miss New Orleans
EXTD=
EXTT0=
EXTT1=
EXTT2=
EXTT3=
EXTT4=
EXTT5=
EXTT6=
EXTT7=
EXTT8=
EXTT9=
EXTT10=
EXTT11=
EXTT12=
EXTT13=
EXTT14=
EXTT15=
EXTT16=
EXTT17=
EXTT18=
EXTT19=
PLAYORDER=
